<?xml version="1.0" encoding="utf-8"?>
<!-- Generator: Adobe Illustrator 15.1.0, SVG Export Plug-In . SVG Version: 6.00 Build 0)  -->
<!DOCTYPE svg PUBLIC "-//W3C//DTD SVG 1.1//EN" "http://www.w3.org/Graphics/SVG/1.1/DTD/svg11.dtd">
<svg version="1.1" id="Laag_1" xmlns="http://www.w3.org/2000/svg" xmlns:xlink="http://www.w3.org/1999/xlink" x="0px" y="0px"
	 width="100px" height="100px" viewBox="0 0 100 100" enable-background="new 0 0 100 100" xml:space="preserve">
<polygon fill="#357ADB" points="59.066,57.051 53.402,62.715 47.738,57.051 50.6,57.051 50.6,52.621 56.204,52.621 56.204,57.051 
	"/>
<g>
	<path fill="#357ADB" d="M50.637,37.075h-7.409v2.328h7.409V37.075z M50.637,47.446h-7.409v2.329h7.409V47.446z M43.281,44.642
		h7.409v-2.381h-7.409V44.642z"/>
</g>
<path fill="#357ADB" d="M53.547,50.121V34.111H40.317v18.521H48.1v2.646h-7.783c-1.429,0-2.646-1.164-2.646-2.646V34.111
	c0-1.429,1.217-2.646,2.646-2.646h13.229c1.48,0,2.646,1.217,2.646,2.646v16.009H53.547z"/>
<path fill="#357ADB" d="M46.788,57.051v8.743h13.23V47.273h-1.191v-2.646h1.191c1.429,0,2.645,1.165,2.645,2.646v18.521
	c0,1.429-1.216,2.646-2.645,2.646h-13.23c-1.481,0-2.646-1.217-2.646-2.646v-8.743H46.788z"/>
</svg>
