<svg xmlns="http://www.w3.org/2000/svg" xmlns:xlink="http://www.w3.org/1999/xlink" version="1.1" id="Laag_1" x="0px" y="0px" width="100.0px" height="100px" viewBox="0 0 283.46 283.46" enable-background="new 0 0 283.46 283.46" xml:space="preserve">
<polygon points="167.429,161.717 151.373,177.771 135.319,161.717 143.431,161.717 143.431,149.158 159.316,149.158   159.316,161.717 "/>
<g>
	<path d="M143.533,105.093h-21v6.6h21V105.093z M143.533,134.492h-21v6.601h21V134.492z M122.684,126.542h21v-6.75h-21V126.542z"/>
</g>
<path d="M151.783,142.072v-45.38h-37.5v52.5h22.061v7.5h-22.061c-4.051,0-7.5-3.3-7.5-7.5v-52.5c0-4.05,3.449-7.5,7.5-7.5h37.5  c4.199,0,7.5,3.45,7.5,7.5v45.38H151.783z"/>
<path d="M132.624,161.717V186.5h37.5V134h-3.374v-7.5h3.374c4.051,0,7.5,3.301,7.5,7.5v52.5c0,4.051-3.449,7.5-7.5,7.5h-37.5  c-4.199,0-7.5-3.449-7.5-7.5v-24.783H132.624z"/>
</svg>